<?xml version="1.0" standalone="no"?>
<!DOCTYPE svg PUBLIC "-//W3C//DTD SVG 20010904//EN"
 "http://www.w3.org/TR/2001/REC-SVG-20010904/DTD/svg10.dtd">
<svg version="1.0" xmlns="http://www.w3.org/2000/svg"
 width="1280.000000pt" height="1280.000000pt" viewBox="0 0 1280.000000 1280.000000"
 preserveAspectRatio="xMidYMid meet">
<metadata>
Created by potrace 1.15, written by Peter Selinger 2001-2017
</metadata>
<g transform="translate(0.000000,1280.000000) scale(0.100000,-0.100000)"
fill="#000000" stroke="none">
<path d="M2479 12009 c-87 -13 -312 -66 -397 -95 -284 -94 -596 -324 -786
-578 -177 -236 -246 -384 -311 -666 -19 -80 -39 -189 -44 -242 -15 -133 -15
-7896 -1 -8022 24 -209 99 -472 179 -630 105 -206 294 -437 466 -571 230 -179
389 -258 654 -325 258 -65 -91 -60 4296 -60 4372 0 4031 -5 4290 59 230 57
372 121 569 259 234 164 428 390 556 647 92 185 158 422 180 647 7 69 10 1412
7 4058 -3 3717 -4 3960 -20 4040 -73 350 -141 521 -304 752 -104 149 -224 273
-364 377 -217 163 -371 237 -609 297 -279 69 80 64 -4320 63 -2192 -1 -4010
-5 -4041 -10z m7354 -1429 c260 -30 537 -213 677 -448 57 -97 107 -225 120
-307 7 -49 10 -1075 8 -3425 l-3 -3355 -29 -75 c-102 -269 -258 -450 -481
-560 -123 -60 -177 -78 -274 -91 -50 -6 -1237 -9 -3401 -7 l-3325 3 -104 37
c-304 109 -510 316 -618 623 l-28 80 0 3390 0 3390 23 70 c57 169 135 295 254
411 91 89 164 140 272 189 101 45 166 65 244 75 103 12 6560 12 6665 0z"/>
<path d="M2860 8873 c-31 -12 -50 -37 -50 -68 0 -30 13 -43 183 -177 100 -79
371 -294 602 -478 231 -184 580 -460 775 -615 195 -155 486 -385 645 -511
1629 -1292 1490 -1184 1520 -1184 14 0 61 29 117 73 96 75 570 451 1378 1092
256 203 600 475 765 606 1028 814 1440 1142 1453 1157 19 24 14 67 -9 88 -21
19 -97 19 -3693 21 -2019 1 -3678 -1 -3686 -4z"/>
<path d="M2819 8201 l-24 -19 0 -1775 c0 -1731 0 -1775 19 -1796 37 -41 65
-29 223 96 157 124 1380 1096 1820 1446 144 114 265 217 268 228 11 34 -2 64
-42 95 -77 62 -1087 865 -1338 1064 -143 113 -394 313 -558 443 -198 157 -306
237 -321 237 -13 0 -34 -9 -47 -19z"/>
<path d="M10104 8167 c-65 -50 -165 -129 -684 -542 -118 -94 -370 -294 -560
-445 -1003 -797 -930 -736 -930 -774 0 -39 -62 12 1050 -872 256 -203 626
-498 823 -654 383 -305 401 -316 443 -269 19 21 19 50 18 1795 0 1708 -1 1774
-19 1794 -30 33 -66 25 -141 -33z"/>
<path d="M5314 6043 c-82 -64 -372 -293 -644 -508 -272 -215 -686 -542 -920
-726 -714 -563 -925 -731 -932 -743 -17 -24 -8 -65 18 -85 l27 -21 3682 2
c3606 3 3683 3 3704 22 30 27 27 72 -6 101 -16 13 -566 448 -1223 967 -657
519 -1242 980 -1299 1026 -72 57 -112 82 -131 82 -19 0 -69 -33 -176 -118 -82
-65 -312 -247 -512 -405 l-363 -287 -492 388 c-556 438 -534 422 -562 422 -12
0 -88 -52 -171 -117z"/>
</g>
</svg>
